<svg xmlns="http://www.w3.org/2000/svg" fill="none" viewBox="0 0 16 16"><g fill-rule="evenodd" clip-path="url(#a)" clip-rule="evenodd"><path fill="#E44900" d="M12 6c-.5-1.68-1.35-2.26-2.05-2.74C9.08 2.66 8.45 2.22 9 0a5.52 5.52 0 0 0-3.29 3.15c-.49 1-.97 2-2.71 2.85.28-.65.32-.97.35-1.26C3.39 4.36 3.43 4 4 3 .43 4.93 0 5.5 0 8.71V11c0 .36.2.69.5.87l2 1.14a1 1 0 0 0 1 0l.5-.3 1 .58v.57c0 .36.2.69.5.87l2 1.14a1 1 0 0 0 1 0l2-1.14a1 1 0 0 0 .5-.87v-.57l1-.57.5.3a1 1 0 0 0 1 0l2-1.15A1 1 0 0 0 16 11V8.71a1 1 0 0 0 0-.12c-.17-2.1-2.09-5.96-3-6.59.15.75-.14 1.37-.44 2.02-.27.59-.56 1.2-.56 1.98Z"/><path fill="#FEB15E" d="M11.5 8.43 10 7.57V5.86L8 4.7 6 5.86v1.7l-1.5.87L3 7.57 1 8.71V11l2 1.14 1.5-.85 1.5.86v1.7L8 15l2-1.14v-1.71l1.5-.86 1.5.85L15 11V8.71l-2-1.14-1.5.86ZM5 9.29l1.5-.86L8 9.3l1.5-.86 1.5.86v1.13l-1.5.86-1.5-.85-1.5.85-1.5-.86V9.3Zm2-2.86L8 7v1.14l1-.57V6.43l-1-.57-1 .57Zm6 3.43-1-.57 1-.58 1 .58v1.14L13 11V9.86ZM8 12.7l-1-.57 1-.57 1 .57v1.15l-1 .57V12.7ZM3 9.86l-1-.57 1-.58 1 .58v1.14L3 11V9.86Z"/></g><defs><clipPath id="a"><path fill="#fff" d="M0 0h16v16H0z"/></clipPath></defs></svg>